<svg width="240" height="72" viewBox="0 0 240 72" fill="none" xmlns="http://www.w3.org/2000/svg">
<path d="M4.32 6.944H22.572V13.28H10.872V16.448H20.592V22.46H10.872V25.664H22.572V32H4.32V6.944ZM45.4044 7.772C46.8444 8.444 47.9724 9.44 48.7884 10.76C49.6284 12.08 50.0484 13.544 50.0484 15.152C50.0484 17.024 49.4724 18.704 48.3204 20.192C47.1924 21.656 45.7404 22.628 43.9644 23.108L50.3364 32H48.7524L42.5964 23.36L41.4444 23.396H32.4084V32H31.0764V6.944H40.6164C41.6724 6.944 42.5724 7.016 43.3164 7.16C44.0844 7.28 44.7804 7.484 45.4044 7.772ZM41.8044 22.064C43.0524 22.064 44.2044 21.752 45.2604 21.128C46.3164 20.504 47.1564 19.664 47.7804 18.608C48.4044 17.552 48.7164 16.4 48.7164 15.152C48.7164 13.76 48.3444 12.5 47.6004 11.372C46.8804 10.244 45.8724 9.404 44.5764 8.852C43.6404 8.468 42.3204 8.276 40.6164 8.276H32.4084V22.064H41.8044ZM74.7529 6.944V8.276H67.2649V30.668H74.7529V32H58.5169V30.668H65.9689V8.276H58.5169V6.944H74.7529ZM84.6613 22.424C84.6613 24.008 85.0573 25.472 85.8493 26.816C86.6653 28.16 87.7453 29.228 89.0893 30.02C90.4573 30.812 91.9333 31.208 93.5173 31.208C95.1493 31.208 96.6253 30.884 97.9453 30.236C99.2653 29.588 100.297 28.688 101.041 27.536C101.809 26.384 102.205 25.088 102.229 23.648H103.525C103.525 25.304 103.081 26.816 102.193 28.184C101.329 29.528 100.129 30.596 98.5933 31.388C97.0813 32.156 95.3893 32.54 93.5173 32.54C91.6933 32.54 90.0013 32.084 88.4413 31.172C86.8813 30.26 85.6453 29.036 84.7333 27.5C83.8213 25.94 83.3653 24.248 83.3653 22.424V16.52C83.3653 14.696 83.8093 13.016 84.6973 11.48C85.6093 9.92 86.8333 8.684 88.3693 7.772C89.9293 6.86 91.6213 6.404 93.4453 6.404C95.2933 6.404 96.9733 6.8 98.4853 7.592C100.021 8.36 101.233 9.428 102.121 10.796C103.009 12.14 103.453 13.64 103.453 15.296H102.157C102.133 13.856 101.737 12.56 100.969 11.408C100.201 10.256 99.1573 9.356 97.8373 8.708C96.5413 8.06 95.0773 7.736 93.4453 7.736C91.8613 7.736 90.3973 8.132 89.0533 8.924C87.7093 9.716 86.6413 10.784 85.8493 12.128C85.0573 13.472 84.6613 14.936 84.6613 16.52V22.424ZM1.512 42.908H25.128L13.32 68.504L1.512 42.908ZM13.32 65.336L23.076 44.24H3.6L13.32 65.336ZM31.3284 42.944H48.9684V44.276H32.6604V54.428H46.8444V55.76H32.6604V66.668H48.9684V68H31.3284V42.944ZM58.8769 68V42.944H60.2089V66.668H77.6689V68H58.8769ZM101.401 42.944V44.276H93.9133V66.668H101.401V68H85.1653V66.668H92.6173V44.276H85.1653V42.944H101.401ZM111.058 42.944L119.95 56.336L128.77 42.944H130.354L120.598 57.74V68H119.266V57.74L109.474 42.944H111.058ZM136.446 42.944H137.778V58.424C137.778 60.008 138.174 61.472 138.966 62.816C139.758 64.16 140.826 65.228 142.17 66.02C143.514 66.812 144.978 67.208 146.562 67.208C148.146 67.208 149.61 66.812 150.954 66.02C152.298 65.228 153.366 64.16 154.158 62.816C154.95 61.472 155.346 60.008 155.346 58.424V42.944H156.678V58.424C156.678 60.248 156.222 61.94 155.31 63.5C154.398 65.036 153.162 66.26 151.602 67.172C150.066 68.084 148.386 68.54 146.562 68.54C144.738 68.54 143.046 68.084 141.486 67.172C139.95 66.26 138.726 65.036 137.814 63.5C136.902 61.94 136.446 60.248 136.446 58.424V42.944ZM165.471 68V42.944H166.803V66.668H184.263V68H165.471ZM207.995 42.944V44.276H200.507V66.668H207.995V68H191.759V66.668H199.211V44.276H191.759V42.944H207.995ZM216.716 68V42.944H218.12L235.616 59.936V42.944H236.948V68H235.616V61.808L218.048 44.672V68H216.716Z" fill="black"/>
</svg>
